# xmcd
#
# Track frame offsets:
# 192
# 13030
# 33035
# 49925
# 63267
# 75495
# 89615
# 104880
# 121842
# 133550
# 149815
# 164600
# 183162
#
# Disc length: 2620 seconds
#
#
# Revision: 3
# Processed by: cddbd v1.5PL3 Copyright (c) Steve Scherf et al.
# Submitted via: FreeRIP 2.53 
#
DISCID=b30a3a0d
DTITLE=Tom Russell - Road to Bayamon
DYEAR=1989
DGENRE=country
TTITLE0=Home Before Dark
TTITLE1=U.S. Steel
TTITLE2=Downtown Train
TTITLE3=Love Makes a Fool of the Wise
TTITLE4=The Definition of a Fool
TTITLE5=As the Crow Flies
TTITLE6=The Road to Bayamon
TTITLE7=Alkali
TTITLE8=Wise Blood
TTITLE9=Joshua Tree
TTITLE10=Mezcal
TTITLE11=William Faulkner in Hollywood
TTITLE12=Fire
EXTD=
EXTT0=
EXTT1=
EXTT2=
EXTT3=
EXTT4=
EXTT5=
EXTT6=
EXTT7=
EXTT8=
EXTT9=
EXTT10=
EXTT11=
EXTT12=
PLAYORDER=
